<svg width="105" height="84" viewBox="0 0 105 84" fill="none" xmlns="http://www.w3.org/2000/svg">
<path d="M30 0L32.252 5.5C33.656 8.92 35.564 17.468 35.124 21.5C29.672 24.86 26.328 28.14 23.748 30.876C20.596 28.328 14.36 24 4 24H0V28C0 35.656 2.764 41.876 3.752 44C2.752 46.108 0 52.108 0 60V64H4C14.28 64 20.592 59.656 23.752 57.124C28.484 62 35.232 67.14 43.752 71C43.376 73.484 43.08 76.952 44.124 81L44.876 84H48C52.936 84 57.188 81.548 60.624 79.376C63.436 77.592 64.796 76.344 65.5 75.748C81.408 75.188 91.564 66.608 97 58.124C102.624 49.36 104 40.624 104 40.624L104.124 39.624L103.752 38.624C103.752 38.624 94.592 13.468 69.752 12.248C67.112 9.048 63.42 6.392 58.252 4.248C52.14 1.72 44.452 0 36 0H30ZM41.624 8.5C46.672 9.06 51.392 10.08 55.124 11.624C60.236 13.736 63.796 16.764 64.624 18.124L65.752 20H68C87.984 20 95.172 38.92 95.752 40.5C95.472 41.968 94.312 47.548 90.252 53.876C85.608 61.108 78.092 68 64 68H62.5L61.376 69C61.376 69 59.264 70.8 56.376 72.624C54.856 73.58 53.564 73.752 52 74.376C52.16 72.548 52 69.876 52 69.876L52.876 66.376L49.624 65.248C39.72 61.468 31.296 54.344 27 49.376L24.248 46.124L21.248 49.124C21.248 49.124 15.92 52.86 9 54.624C10.032 49.936 11.624 45.752 11.624 45.752L12.5 44L11.624 42.248C11.624 42.248 9.892 37.656 8.876 32.748C16.248 34.376 21.248 38.876 21.248 38.876L24.248 41.876L27 38.624C30.58 34.58 40.22 24.5 54.376 22.624L53.248 14.748C49.42 15.252 46.08 16.36 42.876 17.628C42.672 14.268 42.5 11.376 41.624 8.5V8.5ZM78 36C76.4087 36 74.8826 36.6321 73.7574 37.7574C72.6321 38.8826 72 40.4087 72 42C72 43.5913 72.6321 45.1174 73.7574 46.2426C74.8826 47.3679 76.4087 48 78 48C79.5913 48 81.1174 47.3679 82.2426 46.2426C83.3679 45.1174 84 43.5913 84 42C84 40.4087 83.3679 38.8826 82.2426 37.7574C81.1174 36.6321 79.5913 36 78 36Z" fill="white"/>
</svg>
