<svg width="406" height="336" viewBox="0 0 406 336" fill="none" xmlns="http://www.w3.org/2000/svg">
<path d="M278.548 131.56C292.963 117.813 313.972 86.9358 307.947 63.7024C296.769 20.6025 235.289 -6.28164 211.66 2.44446C216.661 3.75757 231.583 12.6979 246.446 26.0727C259.957 38.2301 261.871 64.4088 245.155 44.6609C239.303 37.7471 222.154 19.3344 209.665 14.016C184.373 3.24564 158.211 3.10104 138.536 16.2089C150.416 17.8931 173.045 22.0323 195.919 35.0187C224.511 51.2516 233.351 67.3811 232.457 68.7499C231.563 70.1187 232.746 68.5472 206.759 52.3892C165.331 26.6292 110.915 17.4695 72.8562 56.3251C106.313 41.5385 131.858 50.6852 167.156 62.2555C184.476 67.9327 214.084 86.0408 209.793 88.9335C205.501 91.8261 201.545 88.5914 188.048 82.5426C174.551 76.4938 145.774 69.5842 127.609 67.9722C87.5877 64.4207 47.348 57.0127 16.3592 120.229C55.1443 92.7771 102.457 97.103 142.936 102.518C151.512 103.666 203.803 115.792 199.164 129.019C196.378 136.963 173.054 127.052 166.292 125.402C159.531 123.752 128.354 115.48 119.326 113.815C110.299 112.15 90.9292 108.124 65.2372 114.94C39.5453 121.755 25.3082 134.262 20.8319 138.987C16.3555 143.711 6.70911 160.03 4.92503 173.022C3.49776 183.415 1.41987 194.328 0.559284 198.485C7.1486 191.235 24.515 175.292 48.6158 165.647C78.7417 153.591 101.595 151.673 112.332 151.688C123.069 151.704 139.5 154.166 138.75 160.348C138 166.53 120.005 172.122 111.214 174.354C102.423 176.586 81.8 181.38 74.0443 183.963C66.2887 186.546 44.23 196.854 29.5896 206.494C14.9493 216.134 10.4039 225.998 6.05858 242.524C2.58234 255.745 8.33007 286.459 11.0964 292.225C9.96434 283.892 14.8842 272.351 26.9309 261.99M278.548 131.56L289.342 132.263M278.548 131.56C278.506 123.558 284.231 96.2112 282.384 81.0753C280.074 62.1554 274.694 51.6414 268.028 40.9413M278.548 131.56C276.04 122.816 268.434 101.359 258.071 85.4784C245.117 65.6273 228.546 46.6685 219.135 37.2674M278.548 131.56C275.901 131.808 272.341 132.341 267.979 133.224M278.548 131.56C315.921 144.503 356.012 205.936 340.109 243.643M26.9309 261.99C65.4959 254.058 36.3186 276.948 52.5473 278.535C65.6055 279.813 80.0666 278.157 107.359 256.114C123.954 242.711 150.069 198.11 154.811 210.868C160.241 225.475 145.258 252.917 122.473 274.531C94.4214 301.139 60.8089 300.939 57.6953 301.834C62.1995 302.552 91.2989 323.937 108.053 324.006C120.595 324.058 142.646 322.634 165.078 297.58C187.51 272.526 196.996 235.327 199.51 225.09C201.521 216.9 202.543 193.278 202.803 182.491C203.974 177.344 207.765 169.59 213.566 179.757C220.816 192.466 208.478 241.688 199.638 263.741C189.549 288.91 164.028 320.55 138.582 334.014C147.275 333.996 173.239 337.17 190.72 332.705C212.571 327.124 227.05 320.379 238.641 299.147C250.232 277.915 255.652 259.153 258.075 241.697C260.499 224.241 258.62 201.371 257.36 194.202C256.352 188.467 251.685 173.448 250.636 166.471C266.906 174.062 270.616 198.958 271.113 215.147C271.498 227.703 271.803 247.362 269.853 257.317C266.255 275.688 256.349 320.179 230.742 325.083C253.112 324.347 284.169 305.874 296.908 288.799C311.112 269.761 312.606 244.929 311.708 236.044C310.811 227.158 304.523 195.551 299.768 184.635C295.964 175.902 293.161 167.519 292.236 164.419C291.254 161.663 290.688 157.225 296.275 161.525C301.862 165.825 308.309 178.009 310.835 183.564C312.696 188.522 316.704 199.666 317.845 204.578C319.273 210.717 323.025 231.881 322.817 239.556C322.608 247.231 321.761 259.369 318.393 268.398C315.699 275.621 310.678 283.049 308.505 285.861C326.734 284.446 356.785 265.4 364.741 234.426C372.4 204.61 354.897 181.382 339.083 160.136C336.999 157.907 333.438 150.387 343.459 153.938C367.951 162.616 381.559 198.402 381.978 221.834C387.457 219.446 401.118 199.732 403.931 186.598C408.004 167.575 401.522 148.76 386.748 136.634M26.9309 261.99C37.8352 255.877 71.4762 236.845 80.8703 231.134C90.917 225.026 116.349 217.255 146.459 185.907M289.342 132.263C299.066 126.084 309.096 121.569 317.103 118.988C325.11 116.407 340.439 116.166 358.015 120.81C367.701 123.37 378.527 129.887 386.748 136.634M289.342 132.263C304.444 134.37 376.821 142.453 385.308 171.683M289.342 132.263C308.844 129.826 350.973 125.553 363.466 127.951C375.959 130.349 384.193 134.739 386.748 136.634M255.102 136.291C260.982 143.485 273.822 162.027 278.14 178.646C283.537 199.42 291.054 234.759 289.33 258.692C287.952 277.839 282.801 289.468 280.398 292.889M255.102 136.291C259.935 134.988 264.25 133.978 267.979 133.224M255.102 136.291C251.545 137.251 247.708 138.369 243.617 139.664M227.17 145.357C230.752 150.463 237.202 169.158 234.355 203.098C230.796 245.523 224.155 265.757 215.444 285.29C208.475 300.917 201.109 311.239 198.298 314.448M227.17 145.357C233.011 143.166 238.511 141.279 243.617 139.664M227.17 145.357C219.503 148.234 211.247 151.633 202.524 155.624M185.486 163.9C180.899 166.259 176.215 168.774 171.45 171.453C162.246 176.628 153.951 181.44 146.459 185.907M185.486 163.9C186.196 172.106 182.886 193.959 174.578 222.209C163.979 258.244 159.718 263.135 145.355 286.581C136.362 301.262 124.433 307.426 118.803 309.131M185.486 163.9C191.331 160.894 197.021 158.141 202.524 155.624M267.979 133.224C258.994 119.944 237.141 90.8479 221.614 80.7067C202.204 68.0303 191.913 60.17 175.53 53.7007M243.617 139.664C241.023 133.467 228.331 118.16 198.32 106.5C160.806 91.9256 140.624 87.2064 106.812 83.9996C79.7618 81.4341 65.4706 87.1579 61.7063 90.3405M202.524 155.624C193.686 152.184 167.189 143.48 131.9 136.184C96.611 128.889 55.0272 142.769 38.6464 150.621M146.459 185.907C126.982 188.692 73.6594 206.572 59.7768 214.819C45.8942 223.066 32.1589 234.262 27.0266 238.83" stroke="black" stroke-linecap="round" stroke-linejoin="round"/>
</svg>
