<svg width="495" height="430" viewBox="0 0 495 430" fill="none" xmlns="http://www.w3.org/2000/svg">
<path d="M166.871 150.717C152.079 130.743 132.83 88.3025 145.191 61.0225C168.121 10.4157 249.439 -9.53158 276.63 6.2337C270.202 6.78218 249.95 14.5929 228.825 27.8683C209.623 39.9354 201.689 71.713 226.45 50.997C235.118 43.7442 260.128 24.7623 276.616 20.8858C310.007 13.0354 342.203 18.4345 363.599 38.7443C348.634 38.2824 319.93 38.5477 289.039 49.6379C250.426 63.5006 236.119 81.4467 236.927 83.3202C237.734 85.1937 236.615 83.0096 272.009 68.6833C328.434 45.8437 397.288 46.1819 435.798 102.066C397.816 76.7548 364.459 82.5549 318.596 89.2557C296.092 92.5436 255.829 108.495 260.489 112.966C265.148 117.438 270.702 114.304 288.586 109.744C306.469 105.185 343.322 102.824 365.999 104.714C415.96 108.879 467.013 108.349 491.636 192.677C449.804 150.658 390.712 145.891 339.791 143.92C329.002 143.503 262.128 147.265 265.012 164.516C266.744 174.876 297.533 167.663 306.197 167.076C314.862 166.489 354.956 162.965 366.41 162.842C377.863 162.72 402.536 161.899 432.67 175.755C462.805 189.611 477.642 208.023 482.139 214.785C486.635 221.548 495.016 243.668 494.44 260.021C493.98 273.103 494.208 286.963 494.38 292.257C487.824 281.939 469.871 258.636 442.296 241.641C407.828 220.397 380.139 213.167 366.935 210.896C353.731 208.626 333.005 208.151 332.61 215.912C332.214 223.672 353.147 234.383 363.479 239.001C373.811 243.619 398.144 253.91 407.129 258.739C416.113 263.568 441.036 280.944 456.981 295.916C472.926 310.889 476.412 323.984 478.231 345.229C479.687 362.225 466.073 398.761 461.443 405.261C464.611 395.257 461.022 380.019 448.42 364.713M166.871 150.717L153.451 149.281M166.871 150.717C168.628 140.889 167.418 106.046 172.917 87.831C179.789 65.062 188.645 53.2824 199.122 41.5481M166.871 150.717C171.818 140.502 185.743 115.743 201.869 98.4271C222.028 76.7824 246.442 57.0058 260.017 47.4537M166.871 150.717C170.072 151.586 174.335 153.001 179.51 155.016M166.871 150.717C118.163 158.663 55.7776 225.647 67.2916 275.396M448.42 364.713C402.697 346.74 433.69 381.101 413.399 379.594C397.072 378.381 379.645 373.262 350.789 340.343C333.244 320.328 310.644 259.925 302.094 274.6C292.304 291.402 304.876 328.335 328.282 359.764C357.098 398.458 398.466 405.377 402.103 407.141C396.412 407.064 356.077 427.153 335.464 423.667C320.033 421.056 293.225 414.606 270.987 379.021C248.749 343.435 245.015 295.679 244.107 282.557C243.381 272.059 247.159 242.8 249.139 229.482C248.797 222.903 245.789 212.562 236.49 223.826C224.866 237.906 229.543 301.052 235.71 330.05C242.749 363.144 267.381 407.485 295.796 429.462C285.112 427.587 252.515 425.955 231.974 416.739C206.298 405.219 189.935 393.84 180.211 365.266C170.486 336.691 167.822 312.468 168.563 290.49C169.304 268.512 176.49 240.796 179.568 232.25C182.03 225.413 190.969 207.944 193.745 199.59C172.124 205.453 162.255 235.271 158.193 255.069C155.043 270.424 150.478 294.53 150.753 307.184C151.261 330.537 153.955 387.349 184.393 398.836C157.048 393.163 122.802 363.832 110.779 340.122C97.3746 313.689 100.831 282.84 103.829 272.107C106.827 261.374 121.295 223.855 129.468 211.448C136.007 201.521 141.239 191.813 143.038 188.199C144.832 185.02 146.474 179.684 138.688 183.78C130.903 187.875 120.379 201.481 116.09 207.772C112.745 213.471 105.442 226.318 102.991 232.113C99.9278 239.357 90.8034 264.577 89.4232 274.057C88.0429 283.537 86.4975 298.642 88.7136 310.46C90.4864 319.915 95.075 330.118 97.1477 334.038C75.0376 328.413 42.1505 298.591 38.9716 258.813C35.9117 220.524 62.3823 195.697 86.3541 172.946C89.3919 170.65 95.3722 162.164 82.295 164.393C50.3339 169.842 25.9749 210.938 20.4649 239.658C14.2376 235.554 1.6435 208.404 0.985486 191.657C0.0324261 167.4 12.0125 145.65 32.7619 133.891M448.42 364.713C436.317 354.872 399.013 324.302 388.681 315.278C377.631 305.627 348.021 290.652 317.683 245.692M153.451 149.281C142.812 139.611 131.444 131.922 122.149 127.042C112.855 122.162 94.0596 118.598 71.4614 120.562C59.0073 121.644 44.3076 127.348 32.7619 133.891M153.451 149.281C134.434 148.652 43.7262 143.161 27.0608 177.29M153.451 149.281C129.992 142.128 79.1084 127.893 63.2373 128.178C47.3661 128.463 36.3074 132.106 32.7619 133.891M194.688 161.532C185.925 169.123 166.187 189.183 157.335 208.695C146.271 233.085 129.496 274.93 126.513 304.723C124.127 328.558 127.981 343.952 130.205 348.67M194.688 161.532C189.024 158.899 183.934 156.739 179.51 155.016M194.688 161.532C198.856 163.47 203.336 165.664 208.09 168.127M227.096 178.633C221.605 184.146 209.689 205.756 205.955 248.091C201.287 301.009 205.138 327.302 211.684 353.174C216.921 373.872 223.776 388.133 226.549 392.677M227.096 178.633C220.382 174.694 214.023 171.201 208.09 168.127M227.096 178.633C235.91 183.804 245.336 189.743 255.21 196.509M274.392 210.316C279.53 214.194 284.752 218.285 290.039 222.594C300.252 230.918 309.425 238.603 317.683 245.692M274.392 210.316C271.771 220.254 271.181 247.826 275.374 284.33C280.723 330.893 284.919 337.814 297.58 369.703C305.507 389.669 318.86 399.79 325.418 403.086M274.392 210.316C267.847 205.374 261.439 200.777 255.21 196.509M179.51 155.016C193.388 140.604 226.457 109.49 247.709 100.332C274.275 88.8845 288.603 81.4143 310.125 76.9531M208.09 168.127C212.6 161.062 231.466 144.947 270.85 137.009C320.079 127.088 345.897 125.588 388.152 128.853C421.955 131.465 438.306 141.548 442.255 146.264M255.21 196.509C266.808 194.163 301.241 189.111 346.182 187.664C391.124 186.216 439.291 212.146 457.756 225.292M317.683 245.692C341.036 253.268 402.783 286.617 418.093 299.716C433.403 312.815 447.903 329.508 453.239 336.218" stroke="black" stroke-linecap="round" stroke-linejoin="round"/>
</svg>
