<svg width="101" height="97" viewBox="0 0 101 97" fill="none" xmlns="http://www.w3.org/2000/svg">
<path d="M72.4998 0.624023L67.9998 7.24802C67.9998 7.24802 70.4518 9.15602 71.6238 11.876C72.6398 14.264 73.3758 17.064 69.4998 21.748L65.9998 25.252C54.2198 15.22 42.2478 14.748 42.2478 14.748H39.9998L38.7478 16.748C38.7478 16.748 28.5478 34.092 18.7478 52C13.8478 60.952 8.99982 70.064 5.63182 77.252C3.93982 80.844 2.61182 83.972 1.75182 86.5C1.33182 87.764 1.03182 88.828 0.879819 90C0.719819 91.172 0.283821 92.78 2.25182 94.752C4.22382 96.72 5.83182 96.28 7.00382 96.124C8.17582 95.968 9.23982 95.672 10.5038 95.252C13.0358 94.392 16.1598 93.064 19.7558 91.372C26.9318 88 36.0438 83.16 44.9998 78.256C62.8918 68.44 80.2518 58.256 80.2518 58.256L82.2518 57.004V54.628C82.2518 54.628 81.7198 42.8 71.7518 31.004L73.1238 29.504C73.4678 29.16 73.7798 28.924 74.1238 28.628L75.1238 27.752C79.8438 24.128 84.3118 24.272 88.2518 25.256C90.9851 25.9466 93.569 27.1315 95.8758 28.752L100.876 22.504C100.876 22.504 96.4358 19.084 90.1238 17.504C88.7281 17.1759 87.307 16.9671 85.8758 16.88L93.9998 8.75202L88.2478 3.00402L79.8758 11.38C79.6737 10.4365 79.3803 9.51481 78.9998 8.62802C76.7478 3.38002 72.4998 0.628024 72.4998 0.628024V0.624023ZM44.2478 23.248C46.8758 23.5 54.3918 24.592 63.3758 33.624C72.3758 42.688 73.4838 50.144 73.7478 52.748C73.0918 53.14 69.6718 55.204 66.9998 56.748C65.5829 53.6054 63.8214 50.6299 61.7478 47.876L55.3758 52.752C58.1878 56.5 59.3438 59.08 59.9998 60.752C53.7352 64.3011 47.443 67.8012 41.1238 71.252C40.7358 71.452 40.3918 71.672 39.9998 71.876C39.2638 69.688 38.0638 67.048 35.8758 64L29.3758 68.624C31.3438 71.376 32.3118 73.64 32.7518 75.124C32.8278 75.376 32.8278 75.436 32.8718 75.624C26.8918 78.828 21.1118 81.904 16.3758 84.124C13.9078 85.284 12.1558 85.924 10.3758 86.624C11.0798 84.844 11.7198 83.092 12.8758 80.624C16.1078 73.736 20.8918 64.752 25.7478 55.876C28.0918 51.596 29.8758 48.392 31.9998 44.624C33.2798 45.748 34.9358 47.264 36.7518 49.624L42.9998 44.748C40.9711 42.0553 38.6203 39.6212 35.9998 37.5C40.1878 30.156 43.5318 24.484 44.2518 23.248H44.2478Z" fill="white"/>
</svg>
