<svg width="96" height="96" viewBox="0 0 96 96" fill="none" xmlns="http://www.w3.org/2000/svg">
<path d="M36 0C25.672 0 16.484 5.752 10.124 14.5C3.764 23.252 0 35.06 0 48C0 60.936 3.764 72.752 10.124 81.5C16.484 90.252 25.672 96 36 96C68.92 96 86.468 77.172 90.752 57.376C93.76 55.2 96 51.984 96 48C96 44.016 93.764 40.8 90.748 38.624C86.24 18.328 65.252 0 36 0ZM36 8C43.344 8 50.16 12.064 55.376 19.252C60.592 26.432 64 36.64 64 48C64 59.36 60.592 69.56 55.376 76.752C50.156 83.932 43.344 88 36 88C28.656 88 21.84 83.936 16.624 76.748C11.408 69.568 8 59.36 8 48C8 36.64 11.408 26.44 16.624 19.248C21.844 12.064 28.656 8 36 8ZM61.5 14.124C73.66 20.564 81.468 31.156 83.376 41.5L83.748 43.5L85.628 44.376C87.016 45.016 88 46.36 88 48C88 49.64 87.016 50.984 85.624 51.624L83.752 52.5L83.376 54.5C81.248 66.08 74.264 77.436 60.248 83.5C60.796 82.844 61.36 82.204 61.876 81.5C68.236 72.748 72 60.94 72 48C72 35.064 68.236 23.248 61.876 14.5C61.764 14.36 61.608 14.264 61.5 14.124ZM36 16C33.14 16 30.452 17.032 28 18.752L36.124 37.872L44.376 18.872C41.84 17.02 38.968 16 36 16ZM22 25.124C18.86 30.044 16.704 36.644 16.124 44H30L22 25.124ZM50.252 25.5L42.12 44H55.872C55.312 36.812 53.276 30.392 50.244 25.5H50.252ZM16.12 52C16.68 59.188 18.716 65.608 21.744 70.5L29.88 52H16.12ZM41.996 52L49.996 70.876C53.136 65.956 55.292 59.356 55.872 52H41.996ZM35.872 58.124L27.62 77.124C30.152 78.984 33.028 80 35.996 80C38.856 80 41.544 78.968 43.996 77.248L35.872 58.124Z" fill="white"/>
</svg>
