<svg width="320" height="327" viewBox="0 0 320 327" fill="none" xmlns="http://www.w3.org/2000/svg">
<path d="M-271 77.4194C-271 77.4194 -160.785 67.1637 -17.5772 108.887C125.63 150.61 172.398 202.753 172.398 202.753M-154.793 75.297C-154.793 75.297 -144.317 60.3274 -134.797 52.6186C-125.276 44.9099 -105.499 30.9551 -100.749 26.736C-96.0062 22.5212 -80.8094 -2.6215 -77.4868 1.44278C-74.1642 5.50707 -81.094 23.6715 -88.1231 29.1986C-95.1523 34.7256 -100.364 37.3463 -109.238 45.0546C-118.112 52.7628 -130.92 69.0928 -133.657 70.6413C-138.128 73.1741 -141.688 68.9091 -137.162 65.5594C-132.636 62.2097 -122.105 62.4286 -116.116 60.7203C-110.128 59.012 -47.8684 32.2248 -40.4052 27.5711C-32.9421 22.9174 -12.1797 21.4508 -35.4966 37.4484C-58.8135 53.4459 -98.6694 61.9647 -119.371 72.5216C-140.069 83.0873 -140.069 83.0873 -140.069 83.0873M-163.406 80.3186C-163.224 80.585 -112.594 96.625 -81.8726 120.421C-51.1514 144.218 -86.1147 126.964 -92.2585 123.767C-98.4098 120.574 -115.841 113.035 -131.816 105.783C-140.971 101.631 -149.659 99.2881 -156.086 97.6682M-156.086 97.6682C-160.405 90.5163 -161.287 85.9608 -165.948 86.9299C-171.362 88.0611 -169.572 92.7469 -165.96 94.771C-164.414 95.6347 -160.873 96.4532 -156.086 97.6682ZM-156.086 97.6682C-152.948 102.86 -149.457 109.195 -146.02 115.046C-142.891 120.377 -139.809 125.298 -137.091 128.598C-127.267 140.503 -86.64 167.201 -78.1841 175.031C-69.7314 182.874 -35.54 211.032 -38.1887 215.537C-40.8374 220.043 -52.8642 208.28 -57.3513 204.514C-61.1451 201.315 -121.63 153.835 -150.083 126.167M-150.083 126.167C-155.284 121.103 -159.413 116.717 -161.929 113.368C-172.307 99.5811 -178.693 86.3763 -181.96 78.6208M-150.083 126.167C-147.106 130.699 -142.617 136.854 -135.926 144.721C-119.484 164.029 -76.7331 196.972 -72.9391 200.013C-69.1408 203.064 -50.1082 224.982 -77.7192 206.124C-105.334 187.257 -131.172 162.151 -137.886 155.184C-144.613 148.213 -153.061 140.379 -163.315 122.368C-173.564 104.365 -171.555 100.227 -171.555 100.227M-152.013 104.624C-152.013 104.624 -82.8446 143.36 -70.9635 157.452C-59.0791 171.53 -49.1462 183.003 -76.6532 163.703C-104.16 144.404 -122.016 130.767 -127.509 127.578C-133.002 124.389 -146.023 115.059 -146.023 115.059M-123.4 74.5651C-110.386 76.9619 -78.014 82.7726 -64.8979 83.7977C-48.2865 85.0951 -24.1839 88.3787 -12.519 86.9368C-0.854175 85.4949 25.379 81.2589 -5.84186 79.4006C-37.0594 77.5292 -66.3612 74.9399 -76.7105 73.786C-80.3492 73.3826 -84.5741 72.0361 -88.6206 70.7331M-88.6206 70.7331C-96.0612 68.3364 -102.853 66.0833 -104.148 70.1381C-104.836 72.2835 -98.1464 72.0249 -88.6206 70.7331ZM-88.6206 70.7331C-70.4092 68.2726 -41.8256 62.0254 -34.5791 61.548C-23.5419 60.8142 10.6526 56.8691 22.2695 54.6802C33.8864 52.4913 50.6645 49.5514 50.6645 49.5514C50.6645 49.5514 78.8346 39.3775 48.4084 40.4191C17.9746 41.4651 -59.2466 55.1765 -59.2466 55.1765L-76.0057 56.1637L-76.0177 56.1593M-45.9164 146.197C-35.5211 159.211 -17.0011 182.917 1.76312 209.4C30.1397 249.47 23.8202 242.647 40.655 264.716C57.4777 286.78 49.6231 267.033 45.6841 261.078C41.7493 255.131 31.0659 236.255 23.1997 224.349C18.9523 217.931 6.22676 200.721 -7.16354 182.725M-45.9164 146.197C-46.6469 144.944 -47.4241 143.617 -48.2534 142.185C-64.3168 114.454 -71.1003 100.804 -71.1003 100.804C-71.1003 100.804 -57.1745 103.261 -26.7464 129.089C3.67842 154.93 12.6009 166.971 17.4377 172.781C22.2822 178.587 36.394 203.712 13.0874 179.757C-10.2149 155.81 -28.8395 140.291 -37.1559 134.693C-39.8647 132.869 -43.5571 130.387 -47.196 127.716M-45.9164 146.197C-32.4187 169.238 -33.8978 164.015 -12.7676 197.211C9.5113 232.205 -14.8066 206.215 -19.1011 200.846C-23.4033 195.481 -43.2991 166.582 -56.3263 142.34C-66.9735 122.511 -77.4046 100.516 -80.8522 93.1454M-7.16354 182.725C-7.16788 182.717 -7.17224 182.708 -7.17224 182.708M-7.16354 182.725C-0.881026 187.089 8.53319 194.245 17.127 203.141C31.7081 218.231 43.5464 235.804 65.8418 257.724C88.1371 279.644 74.1935 258.15 70.1504 252.636C66.1074 247.122 28.7259 201.389 7.33145 183.43C-5.07247 173.017 -15.1887 166.814 -21.5052 163.446M-7.16354 182.725C-7.16354 182.725 -7.17986 182.712 -7.17224 182.708M-7.17224 182.708C-11.9864 176.234 -16.8919 169.654 -21.5052 163.446M-21.5052 163.446L-21.5095 163.437C-27.8865 154.863 -33.728 146.992 -38.0914 141.01C-41.8043 135.924 -44.7728 131.488 -47.196 127.716M-47.196 127.716C-55.3928 114.888 -57.1755 109.705 -59.6886 112.887C-61.9991 115.807 -54.7227 122.17 -47.196 127.716ZM-28.332 105.833C-21.3672 104.395 -9.02091 101.899 3.81906 99.5697L3.82669 99.5653M3.82669 99.5653C14.4532 97.6306 25.4027 95.8135 33.9086 94.8153C33.9086 94.8153 33.9086 94.8153 33.9163 94.8109M3.82669 99.5653C14.3996 93.0483 37.5367 79.7248 67.5793 67.8588C109.244 51.4101 136.58 61.8508 140.672 62.8698C144.759 63.88 153.976 68.6692 139.254 68.5322C124.525 68.3996 114.022 64.9656 84.2637 73.8958C62.733 80.3603 43.1258 89.9854 33.9163 94.8109M33.9163 94.8109C36.37 94.525 38.6158 94.3136 40.595 94.1766C62.0113 92.7052 132.774 96.1358 144.966 97.7251C157.158 99.3143 187.451 111.784 144.333 108.908C101.207 106.037 79.0784 105.426 71.389 104.361C69.5953 104.122 65.2247 104.375 59.5873 104.838M59.5873 104.838C50.7075 105.557 38.6993 106.781 28.7774 107.335M59.5873 104.838C79.3936 110.475 118.225 121.3 143.51 126.924C178.67 134.738 166.646 142.021 139.986 137.533C120.226 134.216 59.6025 114.685 28.7774 107.335M28.7774 107.335C17.9732 107.946 9.6255 107.765 10.3904 105.283C10.8887 103.684 18.0188 104.766 28.7774 107.335ZM11.5439 117.933C15.059 126.051 21.7672 140.732 28.6461 151.42C38.6507 166.959 77.3896 232.453 91.9038 251.173C106.418 269.893 113.183 274.99 97.9859 247.682C82.789 220.375 56.6813 181.618 50.0069 170.139C43.3292 158.673 33.9399 144.274 33.9399 144.274C33.9399 144.274 113.141 217.883 117.66 222.383C122.179 226.883 155.568 248.026 118.771 212.418C81.9774 176.797 60.55 156.624 44.0361 141.094C36.6984 134.194 30.3621 127.751 25.5786 122.718M108.052 158.286C115.754 177.392 136.675 228.419 149.967 251.993C166.492 281.322 186.354 312.103 188.588 315.299C190.831 318.49 212.835 339.825 193.013 309.774C173.191 279.722 158.865 260.692 142.859 226.217C132.296 203.444 122.392 177.858 116.878 163.098M124.904 167.717C130.433 163.725 144.943 154.466 166.75 149.425C195.08 142.864 233.914 137.748 255.949 135.551C277.984 133.354 282.927 141.349 253.256 144.561C223.59 147.782 193.003 153.764 179.579 156.238C166.159 158.721 151.277 163.525 144.618 165.854C140.327 167.351 135.242 170.247 132.164 172.115C138.383 183.979 192.264 275.487 211.695 297.558C231.135 319.625 223.197 303.652 219.509 297.552C215.833 291.457 200.592 267.351 183.118 242.675C165.639 217.991 149.401 189.238 148.064 185.897C147.405 184.255 147.539 183.539 148.955 183.276C150.398 182.986 153.184 183.172 157.839 183.273C161.681 183.357 167.918 183.549 175.345 183.888M175.345 183.888C185.657 184.356 198.247 185.111 209.824 186.29C229.721 188.306 254.711 190.754 285.74 202.062C316.769 213.369 302.64 201.319 288.248 194.651C273.856 187.983 258.125 183.195 230.894 179.529C203.663 175.864 168.338 174.262 156.654 174.996C150.812 175.363 144.826 176.386 140.273 177.315M175.345 183.888C184.525 188.957 199.707 197.035 210.814 201.39C227.811 208.056 253.455 215.742 271.715 224.298C289.967 232.859 309.806 249.836 312.233 251.429C314.652 253.026 327.575 269.864 307.739 258.116C287.891 246.363 289.3 245.925 267.497 234.183C252.552 226.126 219.191 212.925 192.48 203.427M162.339 193.53C169.37 195.478 180.221 199.06 192.48 203.427M192.48 203.427C202.244 209.789 214.719 218.926 226.12 230.218C249.379 253.269 272.683 279.347 292.857 304.864C313.032 330.381 289.462 313.761 285.251 309.23C281.048 304.694 265.367 284.298 238.42 254.968C223.415 238.651 203.681 226.833 190.187 218.504M190.187 218.504C185.123 209.3 180.348 199.75 175.354 204.76C172.653 207.466 179.447 211.873 190.187 218.504ZM190.187 218.504C191.3 220.526 192.423 222.53 193.565 224.355C199.922 234.524 210.894 251.36 221.677 264.207C232.46 277.055 244.602 288.381 262.406 306.526C280.218 324.667 264.71 316.405 259.723 312.915C254.733 309.437 243.708 302.33 216.979 269.518C190.251 236.707 169.105 204.643 169.105 204.643" stroke="#233000" stroke-miterlimit="10"/>
</svg>
