<svg width="15" height="15" viewBox="0 0 15 15" fill="none" xmlns="http://www.w3.org/2000/svg">
<path d="M11.4746 0.882956L7.50272 4.85485L3.4116 0.76373C2.90959 0.261716 2.1072 0.249852 1.61982 0.737236L0.737177 1.61988C0.249793 2.10726 0.261658 2.90964 0.763672 3.41166L4.85479 7.50278L0.882897 11.4747C0.395513 11.9621 0.407378 12.7644 0.909392 13.2664L1.81853 14.1756C2.32054 14.6776 3.12293 14.6895 3.61031 14.2021L7.5822 10.2302L11.6733 14.3213C12.1753 14.8233 12.9777 14.8352 13.4651 14.3478L14.3477 13.4652C14.8351 12.9778 14.8233 12.1754 14.3212 11.6734L10.2301 7.58226L14.202 3.61037C14.6894 3.12298 14.6775 2.3206 14.1755 1.81859L13.2664 0.90945C12.7644 0.407436 11.962 0.395571 11.4746 0.882956Z" fill="#323F8D"/>
</svg>
