<svg width="275" height="269" viewBox="0 0 275 269" fill="none" xmlns="http://www.w3.org/2000/svg">
<path d="M157.966 115.745C130.971 83.3167 42.3758 79.026 10.6117 105.34C-3.69418 117.191 -3.12688 135.22 12.1469 153.567C28.7499 173.511 49.9937 178.164 63.3094 194.16C76.7407 210.294 77.454 232.017 93.9108 251.786C109.185 270.133 126.845 274.001 141.151 262.15C172.915 235.836 184.961 148.172 157.966 115.745ZM113.068 51.3192C123.736 35.3059 122.042 14.602 109.29 5.07399C96.538 -4.45398 77.5547 0.805167 66.8867 16.8185C56.2187 32.8318 57.9121 53.5358 70.6644 63.0637C83.4166 72.5917 102.4 67.3326 113.068 51.3192ZM150.386 78.8591C164.241 88.7295 186.637 80.8566 200.411 61.2772C214.184 41.6977 214.114 17.8273 200.26 7.95678C186.405 -1.9137 164.008 5.95924 150.235 25.5387C136.462 45.1181 136.531 68.996 150.386 78.8591ZM258.07 183.804C251.024 169.549 230.937 164.09 213.195 171.605C195.456 179.124 186.787 196.773 193.833 211.028C200.879 225.283 220.966 230.743 238.708 223.227C256.447 215.708 265.117 198.059 258.07 183.804ZM192.92 129.953C200.101 145.352 223.61 149.805 245.433 139.896C267.257 129.986 279.125 109.474 271.947 94.0717C264.77 78.6695 241.257 74.2195 219.434 84.129C197.611 94.0384 185.739 114.554 192.92 129.953Z" fill="#A5CBE0" fill-opacity="0.2"/>
</svg>
